<?xml version="1.0" encoding="UTF-8" standalone="no"?>
<!-- Created with Inkscape (http://www.inkscape.org/) -->
<svg
   xmlns:dc="http://purl.org/dc/elements/1.1/"
   xmlns:cc="http://creativecommons.org/ns#"
   xmlns:rdf="http://www.w3.org/1999/02/22-rdf-syntax-ns#"
   xmlns:svg="http://www.w3.org/2000/svg"
   xmlns="http://www.w3.org/2000/svg"
   xmlns:sodipodi="http://sodipodi.sourceforge.net/DTD/sodipodi-0.dtd"
   xmlns:inkscape="http://www.inkscape.org/namespaces/inkscape"
   width="400"
   height="300"
   id="svg2"
   sodipodi:version="0.32"
   inkscape:version="0.46"
   version="1.0"
   sodipodi:docbase="C:\kobold\wiki"
   sodipodi:docname="image manquante.svg"
   inkscape:output_extension="org.inkscape.output.svg.inkscape">
  <defs
     id="defs4">
    <inkscape:perspective
       sodipodi:type="inkscape:persp3d"
       inkscape:vp_x="0 : 200 : 1"
       inkscape:vp_y="0 : 1000 : 0"
       inkscape:vp_z="300 : 200 : 1"
       inkscape:persp3d-origin="150 : 133.33333 : 1"
       id="perspective20" />
  </defs>
  <sodipodi:namedview
     id="base"
     pagecolor="#ffffff"
     bordercolor="#666666"
     borderopacity="1.0"
     inkscape:pageopacity="0.0"
     inkscape:pageshadow="2"
     inkscape:zoom="0.7"
     inkscape:cx="264.63982"
     inkscape:cy="44.510049"
     inkscape:document-units="px"
     inkscape:current-layer="layer1"
     width="300px"
     height="400px"
     inkscape:window-width="1276"
     inkscape:window-height="776"
     inkscape:window-x="0"
     inkscape:window-y="0"
     showgrid="false" />
  <metadata
     id="metadata7">
    <rdf:RDF>
      <cc:Work
         rdf:about="">
        <dc:format>image/svg+xml</dc:format>
        <dc:type
           rdf:resource="http://purl.org/dc/dcmitype/StillImage" />
      </cc:Work>
    </rdf:RDF>
  </metadata>
  <g
     inkscape:label="Capa 1"
     inkscape:groupmode="layer"
     id="layer1">
    <rect
       style="fill:#d4d4d4;fill-opacity:1;stroke:none;stroke-width:2.5;stroke-linecap:round;stroke-linejoin:miter;stroke-miterlimit:4;stroke-dasharray:none;stroke-dashoffset:0;stroke-opacity:1"
       id="rect1872"
       width="280"
       height="380"
       x="-290"
       y="10"
       transform="matrix(0,-1,1,0,0,0)" />
    <path
       id="path5023"
       style="fill:#ffffff;fill-opacity:1;fill-rule:nonzero;stroke:none;stroke-width:3.5;stroke-linecap:round;stroke-linejoin:miter;stroke-miterlimit:4;stroke-dashoffset:0;stroke-opacity:1"
       d="M 214.31142,226.85143 C 214.31142,238.83143 204.11142,248.57143 191.53142,248.57143 C 178.97142,248.57143 168.75142,238.83143 168.75142,226.85143 C 168.75142,214.87143 178.97142,205.13143 191.53142,205.13143 C 204.11142,205.13143 214.31142,214.87143 214.31142,226.85143 z M 193.07142,48.57143 L 195.75142,48.57143 C 210.79142,48.57143 223.35142,52.57143 233.37142,60.51143 C 243.49142,68.45143 248.57142,78.99143 248.57142,92.13143 C 248.57142,101.13143 246.71142,108.75143 243.01142,115.01143 C 239.39142,121.19143 232.91142,128.49143 223.63142,136.89143 C 214.43142,145.27143 208.47142,152.19143 205.69142,157.75143 C 202.91142,163.31143 201.51142,169.39143 201.51142,176.01143 C 201.51142,177.41143 202.15142,181.13143 203.45142,187.13143 L 176.81142,187.13143 L 174.19142,180.39143 C 172.71142,176.49143 171.95142,173.11143 171.95142,170.19143 C 171.95142,164.63143 172.75142,159.31143 174.31142,154.19143 C 175.99142,149.07143 178.41142,144.29143 181.57142,139.89143 C 184.73142,135.39143 190.97142,128.23143 200.25142,118.45143 C 209.63142,108.65143 214.31142,100.61143 214.31142,94.25143 C 214.31142,81.91143 205.81142,75.69143 188.81142,75.69143 C 180.55142,75.69143 171.95142,79.65143 162.95142,87.51143 L 148.57142,61.95143 C 159.99142,53.45143 174.83142,48.97143 193.07142,48.57143 z" />
    <rect
       style="fill:#bbbbbb;fill-opacity:1;stroke:none;stroke-width:2.5;stroke-linecap:round;stroke-linejoin:miter;stroke-miterlimit:4;stroke-dasharray:none;stroke-dashoffset:0;stroke-opacity:1"
       id="rect4716"
       width="25"
       height="50"
       x="-300"
       y="0"
       transform="matrix(0,-1,1,0,0,0)" />
    <rect
       y="250"
       x="0"
       height="50"
       width="25"
       id="rect4718"
       style="fill:#bbbbbb;fill-opacity:1;stroke:none;stroke-width:2.5;stroke-linecap:round;stroke-linejoin:miter;stroke-miterlimit:4;stroke-dasharray:none;stroke-dashoffset:0;stroke-opacity:1" />
    <rect
       y="0"
       x="0"
       height="50"
       width="25"
       id="rect4720"
       style="fill:#bbbbbb;fill-opacity:1;stroke:none;stroke-width:2.5;stroke-linecap:round;stroke-linejoin:miter;stroke-miterlimit:4;stroke-dasharray:none;stroke-dashoffset:0;stroke-opacity:1"
       transform="matrix(0,1,1,0,0,0)" />
    <rect
       transform="scale(1,-1)"
       style="fill:#bbbbbb;fill-opacity:1;stroke:none;stroke-width:2.5;stroke-linecap:round;stroke-linejoin:miter;stroke-miterlimit:4;stroke-dasharray:none;stroke-dashoffset:0;stroke-opacity:1"
       id="rect4722"
       width="25"
       height="50"
       x="0"
       y="-50" />
    <rect
       y="-400"
       x="-300"
       height="50"
       width="25"
       id="rect4724"
       style="fill:#bbbbbb;fill-opacity:1;stroke:none;stroke-width:2.5;stroke-linecap:round;stroke-linejoin:miter;stroke-miterlimit:4;stroke-dasharray:none;stroke-dashoffset:0;stroke-opacity:1"
       transform="matrix(0,-1,-1,0,0,0)" />
    <rect
       transform="scale(-1,1)"
       style="fill:#bbbbbb;fill-opacity:1;stroke:none;stroke-width:2.5;stroke-linecap:round;stroke-linejoin:miter;stroke-miterlimit:4;stroke-dasharray:none;stroke-dashoffset:0;stroke-opacity:1"
       id="rect4726"
       width="25"
       height="50"
       x="-400"
       y="250" />
    <rect
       transform="matrix(0,1,-1,0,0,0)"
       style="fill:#bbbbbb;fill-opacity:1;stroke:none;stroke-width:2.5;stroke-linecap:round;stroke-linejoin:miter;stroke-miterlimit:4;stroke-dasharray:none;stroke-dashoffset:0;stroke-opacity:1"
       id="rect4728"
       width="25"
       height="50"
       x="0"
       y="-400" />
    <rect
       y="-50"
       x="-400"
       height="50"
       width="25"
       id="rect4730"
       style="fill:#bbbbbb;fill-opacity:1;stroke:none;stroke-width:2.5;stroke-linecap:round;stroke-linejoin:miter;stroke-miterlimit:4;stroke-dasharray:none;stroke-dashoffset:0;stroke-opacity:1"
       transform="scale(-1,-1)" />
  </g>
</svg>
